<svg xmlns="http://www.w3.org/2000/svg" width="400" height="400" viewBox="0 0 400 400" style="font-family: Inter, system-ui, Avenir, Helvetica, Arial, sans-serif;">
	<defs>
		<marker
			id='head'
			orient="auto"
			markerWidth='12'
			markerHeight='12'
			refX='0.1'
			refY='6'
		>
			<path d='M0,0 V12 L6,6 Z' fill="darkblue" />
		</marker>
		<marker
			id='headsmall'
			orient="auto"
			markerWidth='6'
			markerHeight='6'
			refX='0.1'
			refY='3'
		>
			<path d='M0,0 V6 L3,3 Z' fill="darkblue" />
		</marker>
	</defs>

	<rect x="0" y="0" height="400" width="400" rx="24" fill="white"/>

	<rect x="20" y="20" width="160" height="20" fill="hsl(150, 90%, 90%)" />
	<rect x="20" y="55" width="160" height="20" fill="hsl(150, 90%, 60%)" />
	<rect x="20" y="90" width="160" height="20" fill="hsl(150, 90%, 50%)" />
	<rect x="20" y="125" width="160" height="20" fill="hsl(150, 90%, 40%)" />
	<rect x="20" y="160" width="160" height="20" fill="hsl(150, 90%, 30%)" />

	<rect x="220" y="20" width="160" height="20" fill="hsl(150, 90%, 90%)" />
	<rect x="220" y="55" width="160" height="20" fill="hsl(150, 90%, 70%)" />
	<rect x="220" y="90" width="160" height="20" fill="hsl(150, 90%, 50%)" />
	<rect x="220" y="125" width="160" height="20" fill="hsl(150, 90%, 30%)" />
	<rect x="220" y="160" width="160" height="20" fill="hsl(150, 90%, 10%)" />

	<rect x="30" y="270" width="140" height="20" fill="hsl(150, 90%, 40%)" />
	<rect x="30" y="310" width="140" height="20" fill="hsl(150, 90%, 60%)" />

	<rect x="220" y="270" width="60" height="20" fill="hsl(150, 90%, 40%)" />
	<rect x="220" y="310" width="60" height="20" fill="hsl(150, 90%, 60%)" />
	<rect x="320" y="270" width="60" height="20" fill="hsl(150, 90%, 30%)" />


	<text x="20" y="100" text-anchor="start" dominant-baseline="middle" font-size="92px" fill="black">1</text>
	<text x="220" y="100" text-anchor="start" dominant-baseline="middle" font-size="92px" fill="black">2</text>
	<text x="20" y="300" text-anchor="start" dominant-baseline="middle" font-size="92px" fill="black">3</text>
	<text x="220" y="300" text-anchor="start" dominant-baseline="middle" font-size="92px" fill="black">4</text>

	<path d="M285 280 L305 280" stroke="darkblue" stroke-width="2" marker-end='url(#headsmall)' />
	<path d="M285 320 L305 320" stroke="darkblue" stroke-width="2" marker-end='url(#headsmall)' />
	<path d="M320 305 L340 326" stroke="darkblue" stroke-width="2" />
	<path d="M340 305 L320 326" stroke="darkblue" stroke-width="2" />




	<path d="M100 180 L100 200" stroke="darkblue" stroke-width="4" marker-end='url(#head)' />
	<path d="M220 180 L195 205" stroke="darkblue" stroke-width="4" marker-end='url(#head)' />
	<path d="M180 300 L190 300" stroke="darkblue" stroke-width="4" marker-end='url(#head)' />
</svg>